# xmcd
#
# Track frame offsets:
#	150
#	17299
#	28823
#	43510
#	54644
#	68822
#	83999
#	115920
#	135884
#	167037
#	182879
#	211641
#
# Disc length: 3236 seconds
#
# Revision: 0
# Processed by: cddbd v1.5.2PL0 Copyright (c) Steve Scherf et al.
# Submitted via: EasyCDDAExtractor 10.0.3.1
#
DISCID=960ca20c
DTITLE=Bottle Up and Go - Live! CD1
DYEAR=2005
DGENRE=Blues
TTITLE0=Baby's Back In Town
TTITLE1=Tiki Bar
TTITLE2=Too Much Of That Good Thing
TTITLE3=One Meatball
TTITLE4=Play With Fire
TTITLE5=Life By The Drop
TTITLE6=110 In The Shade
TTITLE7=Tobacco Road
TTITLE8=3 Times A Fool
TTITLE9=Der Durscht
TTITLE10=Dyin' With The Flu
TTITLE11=One Bourbon, One Scotch
EXTD=
EXTT0=
EXTT1=
EXTT2=
EXTT3=
EXTT4=
EXTT5=
EXTT6=
EXTT7=
EXTT8=
EXTT9=
EXTT10=
EXTT11=
PLAYORDER=
